Coordinates
version=1
nRows=31
nColumns=34
inDegrees=no

Units are S.I. units (second, meters, Newtons, ...)
If the header above contains a line with 'inDegrees', this indicates whether rotational values are in degrees (yes) or radians (no).

endheader
time	pelvis_tilt	pelvis_list	pelvis_rotation	pelvis_tx	pelvis_ty	pelvis_tz	hip_flexion_r	hip_adduction_r	hip_rotation_r	knee_angle_r	ankle_angle_r	subtalar_angle_r	mtp_angle_r	hip_flexion_l	hip_adduction_l	hip_rotation_l	knee_angle_l	ankle_angle_l	subtalar_angle_l	mtp_angle_l	lumbar_extension	lumbar_bending	lumbar_rotation	arm_flex_r	arm_add_r	arm_rot_r	elbow_flex_r	pro_sup_r	arm_flex_l	arm_add_l	arm_rot_l	elbow_flex_l	pro_sup_l
0.92	0.211702	0.0803813	-0.0292902	0.91927	1.08018	-0.217013	0.25475	-0.186254	-0.0915385	1.02525	0.0391189	-0.128373	-0.0945647	-0.179026	0.151632	-0.229474	0.0669925	0.179571	0.242083	-0.0968235	-0.456598	-0.0983478	-0.00325488	-0.0914654	-0.141942	-0.164588	0.713357	1.52467	-0.0473407	-0.107356	-0.180858	0.642389	1.48387
0.93	0.210581	0.074893	-0.0228342	0.931667	1.08068	-0.217725	0.266703	-0.178831	-0.0983016	0.980443	0.0518189	-0.128828	-0.094608	-0.194744	0.146218	-0.217086	0.0619254	0.186922	0.238979	-0.0968067	-0.457982	-0.0884473	-0.0106647	-0.100021	-0.140083	-0.167798	0.687423	1.52275	-0.0268879	-0.115425	-0.179351	0.661767	1.48245
0.94	0.209494	0.0699941	-0.0161933	0.944082	1.08094	-0.218395	0.276341	-0.172316	-0.10713	0.931392	0.0644231	-0.126868	-0.0946513	-0.210168	0.141073	-0.205104	0.0576194	0.194624	0.236252	-0.0967898	-0.459419	-0.0792517	-0.0179883	-0.108746	-0.138239	-0.171302	0.662266	1.5204	-0.00642214	-0.123991	-0.177548	0.681514	1.48112
0.95	0.208426	0.0657237	-0.00950305	0.956529	1.08096	-0.219012	0.283733	-0.166625	-0.117976	0.878439	0.076995	-0.121372	-0.0946946	-0.225294	0.136278	-0.193533	0.0541218	0.202767	0.2338	-0.096773	-0.460842	-0.0708427	-0.0251559	-0.117755	-0.136388	-0.175072	0.638218	1.51801	0.0139863	-0.133008	-0.175427	0.701475	1.47999
0.96	0.207321	0.0620964	-0.00292454	0.969026	1.08072	-0.21956	0.289002	-0.161588	-0.130657	0.821911	0.089413	-0.111145	-0.0947378	-0.240074	0.131887	-0.182492	0.0514895	0.211481	0.23163	-0.0967562	-0.462135	-0.0632939	-0.0320524	-0.12719	-0.134497	-0.179136	0.615669	1.51604	0.0342495	-0.142419	-0.172971	0.721533	1.47913
0.97	0.206099	0.059104	0.00335954	0.981594	1.08021	-0.220025	0.292301	-0.156965	-0.144817	0.762108	0.101375	-0.0951143	-0.094781	-0.254434	0.127928	-0.172219	0.0497679	0.220918	0.229875	-0.0967393	-0.463161	-0.0566703	-0.0385226	-0.137206	-0.132527	-0.183571	0.595034	1.51491	0.0542706	-0.15216	-0.170171	0.741625	1.47862
0.98	0.204671	0.0567158	0.00915829	0.994254	1.07943	-0.220389	0.293784	-0.152462	-0.15991	0.699304	0.112426	-0.0725613	-0.0948243	-0.268303	0.124405	-0.163054	0.0489734	0.231238	0.228801	-0.0967225	-0.463784	-0.0510198	-0.0443882	-0.147941	-0.130433	-0.188473	0.576707	1.51497	0.0739522	-0.162163	-0.167028	0.761731	1.47848
0.99	0.202971	0.0548803	0.0142932	1.00703	1.07837	-0.220638	0.29357	-0.147746	-0.175201	0.633766	0.122015	-0.0433147	-0.0948675	-0.281633	0.12129	-0.155409	0.0490825	0.242579	0.228788	-0.0967056	-0.463895	-0.0463607	-0.0494743	-0.159489	-0.128181	-0.193914	0.560999	1.51641	0.0932008	-0.172361	-0.163559	0.781868	1.47874
1	0.200975	0.0535243	0.0186225	1.01994	1.07706	-0.220754	0.291737	-0.142485	-0.18981	0.565809	0.129595	-0.0078713	-0.0949107	-0.294419	0.118527	-0.149724	0.050034	0.255037	0.230295	-0.0966887	-0.463427	-0.0426708	-0.0536399	-0.171875	-0.125748	-0.199905	0.548087	1.5192	0.111927	-0.182686	-0.159809	0.802078	1.47944
1.01	0.198718	0.0525475	0.0220626	1.033	1.07551	-0.220723	0.288326	-0.136382	-0.202784	0.495888	0.134748	0.0326019	-0.0949538	-0.3067	0.116027	-0.146419	0.0517436	0.268648	0.233812	-0.0966719	-0.462366	-0.0398834	-0.0568084	-0.185036	-0.123135	-0.206363	0.53797	1.52313	0.13004	-0.193079	-0.155855	0.822415	1.48059
1.02	0.196271	0.0518235	0.0245995	1.04625	1.07376	-0.220539	0.283375	-0.129231	-0.213209	0.424718	0.137324	0.0763917	-0.094997	-0.318558	0.113678	-0.145851	0.0541299	0.283378	0.239806	-0.096655	-0.460762	-0.0378932	-0.0589894	-0.19882	-0.120368	-0.213105	0.530456	1.52777	0.147445	-0.203485	-0.151809	0.842939	1.48223
1.03	0.193728	0.0512256	0.0262911	1.05969	1.07183	-0.2202	0.276972	-0.120954	-0.220369	0.353381	0.137545	0.121472	-0.0950402	-0.330095	0.111351	-0.148282	0.0571441	0.299109	0.248665	-0.0966382	-0.458719	-0.0365581	-0.0602834	-0.21299	-0.1175	-0.219863	0.525177	1.53261	0.164034	-0.213857	-0.147816	0.863702	1.48438
1.04	0.191202	0.0506401	0.0272587	1.07334	1.06976	-0.219705	0.269315	-0.11163	-0.223899	0.283414	0.136046	0.1658	-0.0950833	-0.341412	0.108903	-0.153853	0.0607949	0.315643	0.260652	-0.0966213	-0.456377	-0.0357099	-0.0608731	-0.227245	-0.114607	-0.226315	0.521635	1.53706	0.179688	-0.224152	-0.144042	0.88474	1.48707
1.05	0.188811	0.0499666	0.027668	1.08721	1.0676	-0.21906	0.260762	-0.10149	-0.223917	0.216789	0.133817	0.207599	-0.0951265	-0.352581	0.10618	-0.162575	0.0651642	0.332702	0.275861	-0.0966045	-0.453896	-0.0351621	-0.0609976	-0.241243	-0.111777	-0.232139	0.519269	1.54063	0.194274	-0.234327	-0.14066	0.906065	1.49026
1.06	0.186669	0.0491076	0.0277061	1.10127	1.0654	-0.218281	0.251812	-0.0908627	-0.221069	0.155772	0.132025	0.245555	-0.0951696	-0.363631	0.103009	-0.174328	0.070408	0.349929	0.294198	-0.0965876	-0.451437	-0.0347086	-0.0609158	-0.254632	-0.109109	-0.237057	0.51753	1.54293	0.207652	-0.244332	-0.137841	0.927654	1.49385
1.07	0.18488	0.0479473	0.027558	1.11552	1.06321	-0.217393	0.24304	-0.0800838	-0.216416	0.102634	0.131733	0.278843	-0.0952128	-0.374546	0.0991785	-0.188863	0.0767426	0.366903	0.315362	-0.0965707	-0.44915	-0.0341149	-0.0608635	-0.267078	-0.106695	-0.240868	0.515943	1.54377	0.219682	-0.254104	-0.135742	0.949437	1.49772
1.08	0.183539	0.0463364	0.0273906	1.12991	1.06109	-0.216426	0.23497	-0.0693907	-0.211185	0.0592588	0.133571	0.307	-0.0952559	-0.385279	0.0944254	-0.205811	0.0844166	0.383151	0.338853	-0.0965539	-0.447172	-0.033111	-0.061018	-0.278284	-0.104619	-0.243475	0.514162	1.5432	0.230227	-0.263565	-0.134494	0.971304	1.50169
1.09	0.182716	0.0440945	0.0273438	1.14445	1.05908	-0.215412	0.227943	-0.058853	-0.206445	0.0267629	0.137467	0.329695	-0.095299	-0.395764	0.0884414	-0.224685	0.0936771	0.398161	0.363977	-0.096537	-0.445605	-0.0313998	-0.0614785	-0.288025	-0.102935	-0.244888	0.511991	1.54145	0.239151	-0.272616	-0.134195	0.993098	1.50556
1.1	0.182449	0.0410287	0.02753	1.15912	1.05723	-0.21437	0.222016	-0.0483632	-0.202814	0.00524989	0.142537	0.346545	-0.0953421	-0.405931	0.0809057	-0.244877	0.104742	0.4114	0.389875	-0.0965201	-0.444511	-0.0286858	-0.0622664	-0.296159	-0.101666	-0.245213	0.509379	1.53895	0.246331	-0.281146	-0.1349	1.01463	1.50916
1.11	0.182728	0.0369575	0.0280402	1.17392	1.05556	-0.21331	0.21694	-0.0376855	-0.200329	-0.00623246	0.147177	0.357053	-0.0953853	-0.415703	0.0715328	-0.265686	0.117791	0.422333	0.41557	-0.0965033	-0.443886	-0.0247215	-0.0633406	-0.302646	-0.100793	-0.244638	0.506405	1.53623	0.251651	-0.289037	-0.136608	1.03568	1.51236
1.12	0.183565	0.0317233	0.0289574	1.18889	1.05415	-0.212227	0.212236	-0.026546	-0.198528	-0.00946783	0.149392	0.360757	-0.0954284	-0.424949	0.0601253	-0.286399	0.132996	0.430456	0.440077	-0.0964864	-0.443633	-0.0193598	-0.0646167	-0.307545	-0.100253	-0.243404	0.503235	1.53384	0.255023	-0.296172	-0.139254	1.05602	1.51514
1.13	0.184895	0.0252871	0.0303458	1.20405	1.053	-0.21112	0.207276	-0.0147067	-0.196672	-0.0067199	0.147229	0.357462	-0.0954715	-0.433482	0.0465957	-0.306313	0.150548	0.435301	0.462428	-0.0964695	-0.443588	-0.0125657	-0.0659829	-0.311005	-0.0999468	-0.241783	0.500088	1.53229	0.2564	-0.302439	-0.142699	1.07541	1.51755
1.14	0.186616	0.0177243	0.0322535	1.21944	1.0521	-0.209984	0.201416	-0.0020459	-0.193992	-0.000397266	0.13922	0.347402	-0.0955145	-0.441051	0.0310038	-0.324695	0.170666	0.436399	0.481589	-0.0964526	-0.443538	-0.00443893	-0.0673142	-0.313243	-0.099744	-0.240057	0.497196	1.53198	0.255799	-0.307742	-0.146729	1.09363	1.51972
1.15	0.188601	0.0092198	0.0347067	1.23507	1.05147	-0.208826	0.194115	0.0114073	-0.189905	0.00725033	0.124707	0.331321	-0.0955576	-0.447325	0.0135487	-0.340789	0.193622	0.433259	0.496453	-0.0964358	-0.443249	0.0047995	-0.0684751	-0.314514	-0.0995028	-0.238494	0.494778	1.53314	0.253314	-0.311999	-0.151064	1.11046	1.52179
1.16	0.190706	3.68116e-05	0.0377	1.25096	1.05109	-0.207652	0.185039	0.0254793	-0.184178	0.0144308	0.104026	0.310447	-0.0956007	-0.451885	-0.00547648	-0.353901	0.21978	0.425361	0.505924	-0.0964189	-0.442507	0.0148448	-0.0693115	-0.31508	-0.0990888	-0.237326	0.493014	1.53586	0.249124	-0.31515	-0.155373	1.12573	1.52389
1.17	0.192782	-0.00953331	0.0411849	1.26708	1.05096	-0.206471	0.174137	0.0398922	-0.176984	0.0200338	0.0784862	0.286378	-0.0956437	-0.454217	-0.0257415	-0.363493	0.249611	0.41217	0.509037	-0.096402	-0.441143	0.0253575	-0.0696393	-0.315172	-0.0983974	-0.236717	0.492039	1.54004	0.243489	-0.31715	-0.159305	1.13929	1.52607
1.18	0.19468	-0.019227	0.0450631	1.28338	1.05107	-0.205284	0.161657	0.0543287	-0.168845	0.0237152	0.0501668	0.260864	-0.0956868	-0.453727	-0.0469375	-0.369255	0.283676	0.393155	0.505077	-0.096385	-0.439057	0.0360146	-0.0692389	-0.314958	-0.0973729	-0.236735	0.491931	1.54543	0.236728	-0.317975	-0.162524	1.15104	1.52834
1.19	0.196249	-0.0288547	0.049191	1.29981	1.05139	-0.20409	0.148107	0.0685058	-0.160472	0.0258234	0.0215837	0.235576	-0.0957298	-0.449777	-0.068819	-0.371137	0.322557	0.367838	0.493679	-0.0963681	-0.43622	0.0465544	-0.0678598	-0.314526	-0.0960222	-0.237335	0.492714	1.55163	0.229193	-0.317615	-0.164745	1.16092	1.5306
1.2	0.197355	-0.038322	0.0533947	1.31628	1.05192	-0.202878	0.134167	0.0822283	-0.152595	0.0271968	-0.00469674	0.211907	-0.0957729	-0.441739	-0.0912139	-0.369321	0.366758	0.335874	0.474874	-0.0963512	-0.432669	0.0568041	-0.0652446	-0.31387	-0.0944199	-0.238346	0.494356	1.55818	0.221231	-0.316077	-0.165771	1.16891	1.53277
1.21	0.197885	-0.04762	0.0574919	1.3327	1.05261	-0.201642	0.120567	0.0954127	-0.14581	0.0288881	-0.0264202	0.190873	-0.0958159	-0.429067	-0.114004	-0.364147	0.416573	0.29716	0.449099	-0.0963343	-0.428487	0.0666826	-0.0611675	-0.312893	-0.0927017	-0.239485	0.496783	1.56455	0.213157	-0.313385	-0.165506	1.17502	1.53474
1.22	0.197757	-0.0567941	0.0613222	1.34899	1.05344	-0.200376	0.107956	0.108071	-0.140485	0.0318793	-0.0419281	0.173078	-0.0958589	-0.411362	-0.137077	-0.356013	0.47198	0.251972	0.417163	-0.0963174	-0.42379	0.0761813	-0.0554807	-0.311422	-0.0910473	-0.240388	0.499888	1.57025	0.205221	-0.309577	-0.163965	1.17929	1.53644
